<?xml version="1.0" encoding="UTF-8"?>
<!DOCTYPE svg PUBLIC "-//W3C//DTD SVG 1.1//EN" "http://www.w3.org/Graphics/SVG/1.1/DTD/svg11.dtd">
<svg xmlns="http://www.w3.org/2000/svg" version="1.1" width="225px" height="225px" style="shape-rendering:geometricPrecision; text-rendering:geometricPrecision; image-rendering:optimizeQuality; fill-rule:evenodd; clip-rule:evenodd" xmlns:xlink="http://www.w3.org/1999/xlink">
<g><path style="opacity:1" fill="#131313" d="M -0.5,-0.5 C 74.5,-0.5 149.5,-0.5 224.5,-0.5C 224.5,74.5 224.5,149.5 224.5,224.5C 149.5,224.5 74.5,224.5 -0.5,224.5C -0.5,149.5 -0.5,74.5 -0.5,-0.5 Z"/></g>
<g><path style="opacity:1" fill="#fcfcfc" d="M 149.5,103.5 C 144.5,103.5 139.5,103.5 134.5,103.5C 134.5,97.1667 134.5,90.8333 134.5,84.5C 150.025,86.4692 157.191,79.8026 156,64.5C 153.774,60.1316 150.274,57.2983 145.5,56C 138.842,55.5004 132.175,55.3337 125.5,55.5C 125.5,87.8333 125.5,120.167 125.5,152.5C 106.83,152.667 88.1637,152.5 69.5,152C 45.2743,146.733 35.7743,131.9 41,107.5C 45.0006,96.1669 52.834,89.0002 64.5,86C 72.7733,84.6696 81.1067,84.1696 89.5,84.5C 89.5,90.8333 89.5,97.1667 89.5,103.5C 85.9581,103.187 82.6248,103.521 79.5,104.5C 70.211,106.398 66.3777,112.065 68,121.5C 68.6154,126.783 71.4487,130.283 76.5,132C 83.8258,132.5 91.1591,132.666 98.5,132.5C 98.5,100.167 98.5,67.8333 98.5,35.5C 117.867,35.1073 137.2,35.6073 156.5,37C 177.386,41.9017 186.553,55.0684 184,76.5C 180.932,91.4842 171.766,100.318 156.5,103C 154.19,103.497 151.857,103.663 149.5,103.5 Z"/></g>
<g><path style="opacity:1" fill="#848484" d="M 89.5,84.5 C 90.4907,90.979 90.824,97.6457 90.5,104.5C 86.8333,104.5 83.1667,104.5 79.5,104.5C 82.6248,103.521 85.9581,103.187 89.5,103.5C 89.5,97.1667 89.5,90.8333 89.5,84.5 Z"/></g>
<g><path style="opacity:1" fill="#858585" d="M 134.5,84.5 C 134.5,90.8333 134.5,97.1667 134.5,103.5C 139.5,103.5 144.5,103.5 149.5,103.5C 144.36,104.488 139.026,104.821 133.5,104.5C 133.176,97.6457 133.509,90.979 134.5,84.5 Z"/></g>
<g><path style="opacity:1" fill="#e8e8e8" d="M 67.5,177.5 C 67.5,177.833 67.5,178.167 67.5,178.5C 66.0222,178.762 64.6888,178.429 63.5,177.5C 62.2972,174.001 60.7972,170.668 59,167.5C 58.5983,168.872 58.0983,170.205 57.5,171.5C 58.325,172.386 59.325,172.719 60.5,172.5C 60.5,173.5 60.5,174.5 60.5,175.5C 58.8333,175.5 57.1667,175.5 55.5,175.5C 55.5,176.5 55.5,177.5 55.5,178.5C 53.712,178.785 52.0453,178.452 50.5,177.5C 52.1561,175.588 52.4895,173.588 51.5,171.5C 50.5832,172.127 49.5832,172.461 48.5,172.5C 46.8333,172.5 45.1667,172.5 43.5,172.5C 43.5,174.5 43.5,176.5 43.5,178.5C 42.1667,178.5 40.8333,178.5 39.5,178.5C 39.5,172.833 39.5,167.167 39.5,161.5C 43.6049,161.234 47.6049,161.734 51.5,163C 52.8633,164.945 53.6966,167.112 54,169.5C 54.7348,167.129 55.5682,164.795 56.5,162.5C 58.396,161.534 60.396,161.201 62.5,161.5C 64.1626,166.822 65.8292,172.155 67.5,177.5 Z"/></g>
<g><path style="opacity:1" fill="#fbfbfb" d="M 73.5,162.5 C 73.5,166.833 73.5,171.167 73.5,175.5C 75.8333,175.5 78.1667,175.5 80.5,175.5C 80.5,176.5 80.5,177.5 80.5,178.5C 76.8333,178.5 73.1667,178.5 69.5,178.5C 69.5,173.167 69.5,167.833 69.5,162.5C 70.8333,162.5 72.1667,162.5 73.5,162.5 Z"/></g>
<g><path style="opacity:1" fill="#f7f7f7" d="M 96.5,170.5 C 96.7828,171.289 97.2828,171.956 98,172.5C 98.4983,169.183 98.665,165.85 98.5,162.5C 99.5,162.5 100.5,162.5 101.5,162.5C 101.5,167.833 101.5,173.167 101.5,178.5C 99.712,178.785 98.0453,178.452 96.5,177.5C 95,174.5 93.5,171.5 92,168.5C 91.5017,171.817 91.335,175.15 91.5,178.5C 90.1667,178.5 88.8333,178.5 87.5,178.5C 87.5,173.167 87.5,167.833 87.5,162.5C 89.1992,162.34 90.8659,162.506 92.5,163C 93.9858,165.475 95.3192,167.975 96.5,170.5 Z"/></g>
<g><path style="opacity:1" fill="#f1f1f1" d="M 118.5,162.5 C 118.5,167.833 118.5,173.167 118.5,178.5C 114.818,178.665 111.152,178.499 107.5,178C 103.042,173.874 102.375,169.208 105.5,164C 109.742,161.473 114.075,160.973 118.5,162.5 Z"/></g>
<g><path style="opacity:1" fill="#f0f0f0" d="M 119.5,178.5 C 119.833,177.833 120.167,177.167 120.5,176.5C 121.225,174.215 122.558,172.382 124.5,171C 120.299,167.477 120.632,164.477 125.5,162C 128.482,161.502 131.482,161.335 134.5,161.5C 134.5,167.167 134.5,172.833 134.5,178.5C 133.167,178.5 131.833,178.5 130.5,178.5C 130.5,176.5 130.5,174.5 130.5,172.5C 127.1,172.731 125.1,174.564 124.5,178C 122.866,178.494 121.199,178.66 119.5,178.5 Z"/></g>
<g><path style="opacity:1" fill="#eaeaea" d="M 140.5,161.5 C 149.658,160.491 153.492,164.491 152,173.5C 151.215,175.286 150.049,176.786 148.5,178C 138.836,180.001 134.67,176.167 136,166.5C 137.025,164.313 138.525,162.646 140.5,161.5 Z"/></g>
<g><path style="opacity:1" fill="#f3f3f3" d="M 166.5,162.5 C 168.167,162.5 169.833,162.5 171.5,162.5C 171.5,167.833 171.5,173.167 171.5,178.5C 170.167,178.5 168.833,178.5 167.5,178.5C 167.665,175.15 167.498,171.817 167,168.5C 165.589,170.65 164.755,172.984 164.5,175.5C 163.167,175.5 161.833,175.5 160.5,175.5C 159.969,172.763 159.136,170.096 158,167.5C 157.501,171.152 157.335,174.818 157.5,178.5C 156.167,178.5 154.833,178.5 153.5,178.5C 153.5,172.833 153.5,167.167 153.5,161.5C 155.199,161.34 156.866,161.506 158.5,162C 159.965,164.43 161.298,166.93 162.5,169.5C 163.604,166.95 164.937,164.617 166.5,162.5 Z"/></g>
<g><path style="opacity:1" fill="#f1f1f1" d="M 184.5,162.5 C 184.5,167.833 184.5,173.167 184.5,178.5C 180.5,178.5 176.5,178.5 172.5,178.5C 172.5,177.5 172.5,176.5 172.5,175.5C 175.059,175.802 177.393,175.468 179.5,174.5C 179.5,173.5 179.5,172.5 179.5,171.5C 176.68,171.913 174.68,170.913 173.5,168.5C 175.833,168.5 178.167,168.5 180.5,168.5C 180.737,167.209 180.404,166.209 179.5,165.5C 177.167,165.5 174.833,165.5 172.5,165.5C 172.5,164.5 172.5,163.5 172.5,162.5C 176.5,162.5 180.5,162.5 184.5,162.5 Z"/></g>
<g><path style="opacity:1" fill="#868686" d="M 73.5,162.5 C 72.1667,162.5 70.8333,162.5 69.5,162.5C 69.5,167.833 69.5,173.167 69.5,178.5C 68.8333,178.5 68.1667,178.5 67.5,178.5C 67.5,178.167 67.5,177.833 67.5,177.5C 68.4881,172.36 68.8214,167.026 68.5,161.5C 70.4147,161.216 72.0813,161.549 73.5,162.5 Z"/></g>
<g><path style="opacity:1" fill="#b8b8b8" d="M 85.5,178.5 C 85.5,173.167 85.5,167.833 85.5,162.5C 84.5,162.5 83.5,162.5 82.5,162.5C 82.5,167.833 82.5,173.167 82.5,178.5C 81.5111,173.025 81.1778,167.358 81.5,161.5C 83.1667,161.5 84.8333,161.5 86.5,161.5C 86.8222,167.358 86.4889,173.025 85.5,178.5 Z"/></g>
<g><path style="opacity:1" fill="#fefefe" d="M 85.5,178.5 C 84.5,178.5 83.5,178.5 82.5,178.5C 82.5,173.167 82.5,167.833 82.5,162.5C 83.5,162.5 84.5,162.5 85.5,162.5C 85.5,167.833 85.5,173.167 85.5,178.5 Z"/></g>
<g><path style="opacity:1" fill="#a6a6a6" d="M 101.5,178.5 C 101.5,173.167 101.5,167.833 101.5,162.5C 100.5,162.5 99.5,162.5 98.5,162.5C 98.665,165.85 98.4983,169.183 98,172.5C 97.2828,171.956 96.7828,171.289 96.5,170.5C 97.4767,167.713 97.81,164.713 97.5,161.5C 99.1667,161.5 100.833,161.5 102.5,161.5C 102.822,167.358 102.489,173.025 101.5,178.5 Z"/></g>
<g><path style="opacity:1" fill="#4d4d4d" d="M 118.5,162.5 C 119.167,167.167 119.833,171.833 120.5,176.5C 120.167,177.167 119.833,177.833 119.5,178.5C 119.167,178.5 118.833,178.5 118.5,178.5C 118.5,173.167 118.5,167.833 118.5,162.5 Z"/></g>
<g><path style="opacity:1" fill="#101010" d="M 44.5,165.5 C 45.8333,165.5 47.1667,165.5 48.5,165.5C 48.5,166.833 48.5,168.167 48.5,169.5C 47.1667,169.5 45.8333,169.5 44.5,169.5C 44.5,168.167 44.5,166.833 44.5,165.5 Z"/></g>
<g><path style="opacity:1" fill="#1f1f1f" d="M 126.5,165.5 C 127.833,165.5 129.167,165.5 130.5,165.5C 130.5,166.833 130.5,168.167 130.5,169.5C 129.167,169.5 127.833,169.5 126.5,169.5C 126.5,168.167 126.5,166.833 126.5,165.5 Z"/></g>
<g><path style="opacity:1" fill="#616161" d="M 166.5,162.5 C 172.5,161.167 178.5,161.167 184.5,162.5C 180.5,162.5 176.5,162.5 172.5,162.5C 172.5,163.5 172.5,164.5 172.5,165.5C 172.5,168.5 172.5,171.5 172.5,174.5C 174.833,174.5 177.167,174.5 179.5,174.5C 177.393,175.468 175.059,175.802 172.5,175.5C 172.5,176.5 172.5,177.5 172.5,178.5C 172.167,178.5 171.833,178.5 171.5,178.5C 171.5,173.167 171.5,167.833 171.5,162.5C 169.833,162.5 168.167,162.5 166.5,162.5 Z"/></g>
<g><path style="opacity:1" fill="#161616" d="M 109.5,165.5 C 111.167,165.5 112.833,165.5 114.5,165.5C 114.5,168.833 114.5,172.167 114.5,175.5C 107.512,174.843 105.845,171.509 109.5,165.5 Z"/></g>
<g><path style="opacity:1" fill="#151515" d="M 141.5,165.5 C 143.467,165.261 145.301,165.594 147,166.5C 147.777,169.429 147.61,172.263 146.5,175C 144.559,175.743 142.726,175.576 141,174.5C 140.264,171.408 140.431,168.408 141.5,165.5 Z"/></g>
<g><path style="opacity:1" fill="#666666" d="M 179.5,165.5 C 180.404,166.209 180.737,167.209 180.5,168.5C 178.167,168.5 175.833,168.5 173.5,168.5C 175.844,168.06 177.844,167.06 179.5,165.5 Z"/></g>
<g><path style="opacity:1" fill="#0e0e0e" d="M 172.5,165.5 C 174.833,165.5 177.167,165.5 179.5,165.5C 177.844,167.06 175.844,168.06 173.5,168.5C 174.68,170.913 176.68,171.913 179.5,171.5C 179.5,172.5 179.5,173.5 179.5,174.5C 177.167,174.5 174.833,174.5 172.5,174.5C 172.5,171.5 172.5,168.5 172.5,165.5 Z"/></g>
<g><path style="opacity:1" fill="#8c8c8c" d="M 48.5,172.5 C 47.4324,173.434 46.099,173.768 44.5,173.5C 44.7845,175.415 44.4511,177.081 43.5,178.5C 43.5,176.5 43.5,174.5 43.5,172.5C 45.1667,172.5 46.8333,172.5 48.5,172.5 Z"/></g>
<g><path style="opacity:1" fill="#969696" d="M 80.5,181.5 C 84.8926,181.457 85.2259,181.957 81.5,183C 85.3779,183.949 85.3779,185.115 81.5,186.5C 85.374,188.002 85.0407,188.669 80.5,188.5C 80.5,186.167 80.5,183.833 80.5,181.5 Z"/></g>
<g><path style="opacity:1" fill="#717171" d="M 153.5,181.5 C 154.725,182.152 155.392,183.319 155.5,185C 155.167,186.167 154.833,187.333 154.5,188.5C 153.526,186.257 153.192,183.924 153.5,181.5 Z"/></g>
<g><path style="opacity:1" fill="#6a6a6a" d="M 65.5,180.5 C 67.604,180.201 69.604,180.534 71.5,181.5C 70.1189,183.635 69.1189,185.968 68.5,188.5C 67.6798,185.699 66.6798,183.032 65.5,180.5 Z"/></g>
<g><path style="opacity:1" fill="#a8a8a8" d="M 98.5,184.5 C 98.5,184.833 98.5,185.167 98.5,185.5C 97.2502,185.577 96.4169,186.244 96,187.5C 95.5034,185.19 95.3367,182.857 95.5,180.5C 99.0348,180.337 100.035,181.67 98.5,184.5 Z"/></g>
<g><path style="opacity:1" fill="#131313" d="M 98.5,184.5 C 96.663,184.361 96.3296,183.694 97.5,182.5C 98.2975,182.957 98.6309,183.624 98.5,184.5 Z"/></g>
<g><path style="opacity:1" fill="#747474" d="M 138.5,180.5 C 140.604,180.201 142.604,180.534 144.5,181.5C 143.119,183.635 142.119,185.968 141.5,188.5C 140.68,185.699 139.68,183.032 138.5,180.5 Z"/></g>
<g><path style="opacity:1" fill="#898989" d="M 50.5,181.5 C 52.4109,181.574 53.5776,182.574 54,184.5C 54.3333,183.5 54.6667,182.5 55,181.5C 55.6667,183.833 55.6667,186.167 55,188.5C 53.6532,184.625 52.4865,184.625 51.5,188.5C 50.5258,186.257 50.1924,183.924 50.5,181.5 Z"/></g>
<g><path style="opacity:1" fill="#8b8b8b" d="M 180.5,180.5 C 184.971,180.672 185.304,181.506 181.5,183C 185.378,183.949 185.378,185.115 181.5,186.5C 185.374,188.002 185.041,188.669 180.5,188.5C 180.5,185.833 180.5,183.167 180.5,180.5 Z"/></g>
<g><path style="opacity:1" fill="#8d8d8d" d="M 111.5,181.5 C 113.708,182.918 114.542,184.918 114,187.5C 112.667,186.167 111.333,186.167 110,187.5C 109.591,185.305 110.091,183.305 111.5,181.5 Z"/></g>
<g><path style="opacity:1" fill="#939393" d="M 169.5,181.5 C 170.043,181.56 170.376,181.893 170.5,182.5C 168.18,190.377 166.68,190.377 166,182.5C 167.515,184.905 168.682,184.572 169.5,181.5 Z"/></g>
<g><path style="opacity:1" fill="#858585" d="M 98.5,185.5 C 100.085,186.002 100.585,187.002 100,188.5C 98.9614,187.756 98.4614,186.756 98.5,185.5 Z"/></g>
<g><path style="opacity:1" fill="#9e9e9e" d="M 124.5,182.5 C 125.29,183.609 125.79,184.942 126,186.5C 127.303,187.112 128.47,187.446 129.5,187.5C 125.072,189.052 123.405,187.386 124.5,182.5 Z"/></g>
</svg>
